<svg width="362" height="350" viewBox="0 0 362 350" fill="none" xmlns="http://www.w3.org/2000/svg">
    <rect x="122" y="113" width="192" height="140" fill="white"/>
    <rect x="54" y="83" width="192" height="140" fill="white"/>
    <rect x="47" y="105" width="192" height="140" fill="white"/>
    <rect x="41" y="128" width="189" height="91" fill="white"/>
    <rect x="27" y="138" width="189" height="34" fill="white"/>
    <rect x="15" y="145" width="189" height="34" fill="white"/>
    <rect x="9" y="151" width="189" height="34" fill="white"/>
    <rect x="61" y="247" width="38" height="24" fill="white"/>
    <rect x="19" y="169" width="189" height="34" fill="white"/>
    <rect x="28" y="202" width="189" height="34" fill="white"/>
    <rect x="37" y="223" width="269" height="34" fill="white"/>
    <rect x="306" y="130" width="17" height="119" fill="white"/>
    <path d="M318 138H335V238H318V138Z" fill="white"/>
    <path d="M314 149H331V249H314V149Z" fill="white"/>
    <path d="M334 151H347V210H334V151Z" fill="white"/>
    <path d="M328 147H341V206H328V147Z" fill="white"/>
    <path d="M327 162H340V221H327V162Z" fill="white"/>
    <path d="M342.919 155H356V179.561H342.919V155Z" fill="white"/>
    <path d="M32 222.542H45.0807V247.103H32V222.542Z" fill="white"/>
    <path d="M341.913 155H354.994V179.561H341.913V155Z" fill="white"/>
    <path d="M48.0994 231.989H61.1801L304.18 247.103V262.218L61.1801 256.55H48.0994V231.989Z" fill="white"/>
    <path d="M56.6522 247.103H69.7329L312.733 262.218L306.193 280.166L291.602 256.55L80.2981 283L69.7329 267.886L56.6522 247.103Z" fill="white"/>
    <rect x="217.582" y="56.2969" width="86.2241" height="21" transform="rotate(19.3231 217.582 56.2969)" fill="white"/>
    <rect x="241.949" y="78" width="70.7313" height="21" transform="rotate(19.3231 241.949 78)" fill="white"/>
    <rect x="228.949" y="87" width="70.7313" height="21" transform="rotate(19.3231 228.949 87)" fill="white"/>
    <rect x="210.949" y="94" width="70.7313" height="21" transform="rotate(19.3231 210.949 94)" fill="white"/>
    <rect x="45" y="242" width="38" height="24" fill="white"/>
    <rect x="80" y="257" width="16" height="58" fill="white"/>
    <rect x="188" y="261" width="16" height="79" fill="white"/>
    <rect x="200" y="223" width="16" height="79" fill="white"/>
    <rect x="211" y="217" width="16" height="79" fill="white"/>
    <rect x="222" y="210" width="16" height="79" fill="white"/>
    <rect x="235" y="202" width="16" height="79" fill="white"/>
    <rect x="248" y="194" width="16" height="79" fill="white"/>
    <rect x="259" y="188" width="16" height="79" fill="white"/>
    <rect x="290" y="210" width="16" height="79" fill="white"/>
    <rect x="178" y="245" width="16" height="79" fill="white"/>
    <rect x="164" y="244" width="16" height="79" fill="white"/>
    <rect x="150" y="239" width="16" height="79" fill="white"/>
    <rect x="138" y="233" width="16" height="79" fill="white"/>
    <rect x="130" y="227" width="16" height="79" fill="white"/>
    <rect x="114" y="217" width="16" height="79" fill="white"/>
    <rect x="103" y="207" width="16" height="79" fill="white"/>
    <rect x="103" y="207" width="16" height="79" fill="white"/>
    <rect x="192.949" y="101" width="70.7313" height="21" transform="rotate(19.3231 192.949 101)" fill="white"/>
    <rect x="217.949" y="92" width="70.7313" height="21" transform="rotate(19.3231 217.949 92)" fill="white"/>
    <rect x="207.949" y="94" width="70.7313" height="21" transform="rotate(19.3231 207.949 94)" fill="white"/>
    <rect x="92.9488" y="87" width="70.7313" height="21" transform="rotate(19.3231 92.9488 87)" fill="white"/>
    <rect x="61.9488" y="77" width="70.7313" height="21" transform="rotate(19.3231 61.9488 77)" fill="white"/>
    <rect x="70" y="75.8879" width="77.0526" height="21" transform="rotate(-21.4694 70 75.8879)" fill="white"/>
    <ellipse cx="168" cy="98" rx="40" ry="7" fill="#CF2525"/>
    <ellipse cx="173.5" cy="107" rx="24.5" ry="6" fill="#CF2525"/>
    <ellipse cx="146.5" cy="74" rx="24.5" ry="9" fill="#CF2525"/>
    <ellipse cx="169" cy="86.5" rx="70" ry="12.5" fill="#CF2525"/>
    <rect x="149" y="10" width="62" height="91" fill="#CF2525"/>
    <path d="M78.1993 99.0261L64.8508 108.815C64.5103 109.065 64.2943 109.449 64.2586 109.87L60.2393 157.209C60.1857 157.84 60.544 158.433 61.1269 158.68L136.275 190.439C137.12 190.796 138.081 190.296 138.274 189.399L149.823 135.653C149.896 135.313 150.088 135.01 150.364 134.798L157.804 129.109" stroke="black" stroke-width="5.11689"/>
    <path d="M272.649 98.0979L285.997 107.887C286.338 108.137 286.554 108.521 286.589 108.942L290.609 156.281C290.662 156.912 290.304 157.505 289.721 157.751L214.573 189.511C213.728 189.868 212.767 189.368 212.574 188.471L201.025 134.724C200.952 134.384 200.76 134.082 200.484 133.87L193.044 128.181" stroke="black" stroke-width="5.11689"/>
    <path d="M7.8513 164.73L127.125 217.65L168.932 242.153C169.307 242.372 169.76 242.414 170.168 242.267L222.138 223.52C222.717 223.311 223.104 222.761 223.104 222.145V207.514C223.104 206.958 223.419 206.45 223.918 206.203L240.125 198.2C240.553 197.988 241.058 197.999 241.476 198.229L248.608 202.142C248.981 202.347 249.424 202.379 249.822 202.231L276.664 192.235C277.236 192.021 277.615 191.475 277.615 190.865V182.215C277.615 181.653 277.937 181.141 278.443 180.898L296.091 172.395C296.488 172.204 296.949 172.202 297.348 172.389L315.652 180.998C316.053 181.187 316.518 181.183 316.916 180.989L355.889 161.969" stroke="black" stroke-width="10.9648"/>
    <path d="M56.4469 87.9185L175.316 134.453C175.662 134.588 176.045 134.587 176.389 134.45L293.409 87.9185" stroke="black" stroke-width="5.11689"/>
    <path d="M154.951 14.5452L165.715 22.238C166.615 22.8814 166.502 24.2528 165.509 24.74L154.373 30.2016C153.39 30.6839 153.266 32.0365 154.146 32.6887L159.736 36.8317C160.158 37.144 160.714 37.2066 161.194 36.9959L176.96 30.0776C177.437 29.8683 177.989 29.9286 178.41 30.2359L193.061 40.9392C193.446 41.2208 193.945 41.2965 194.396 41.142L203.017 38.1931C204.105 37.8209 204.357 36.396 203.463 35.673L192.207 26.5724C191.392 25.9132 191.515 24.6355 192.441 24.1441L210.532 14.5452" stroke="black" stroke-width="2.92394"/>
    <path d="M54.7878 83.9501L146.71 46.6353C147.261 46.4114 147.622 45.8757 147.622 45.2806V16.692C147.622 16.1027 147.976 15.571 148.519 15.3435L166.784 7.69758C167.244 7.50498 167.771 7.56023 168.181 7.84414L178.844 15.2264C179.283 15.5303 179.853 15.5707 180.33 15.332L198.201 6.39655C198.689 6.15284 199.271 6.20045 199.713 6.52006L211.811 15.2814C212.191 15.5563 212.416 15.9967 212.416 16.4655V56.3282C212.416 56.9529 212.813 57.5086 213.404 57.7112L294.259 85.42C294.605 85.5386 294.894 85.7826 295.069 86.1038L322.614 136.677C322.87 137.147 323.362 137.44 323.898 137.44H331.268C331.625 137.44 331.97 137.571 332.238 137.808L355.86 158.756C356.173 159.033 356.352 159.432 356.352 159.85V177.357C356.352 177.861 356.092 178.33 355.665 178.597L345.948 184.67C345.512 184.943 345.251 185.433 345.259 185.947C345.763 220.777 332.684 242.877 325.698 250.013C325.465 250.25 325.163 250.385 324.833 250.418L308.147 252.087C307.4 252.161 306.83 252.79 306.83 253.541V283.496C306.83 283.914 306.652 284.311 306.34 284.589L299.499 290.669C298.933 291.172 298.077 291.16 297.526 290.641L291.092 284.585C290.798 284.309 290.632 283.924 290.632 283.521V261.055C290.632 259.97 289.492 259.263 288.52 259.745L231.741 287.915C231.243 288.162 230.929 288.669 230.929 289.225V292.483C230.929 293.048 230.603 293.563 230.091 293.805L206.311 305.046C205.8 305.288 205.474 305.803 205.474 306.368V334.416C205.474 334.827 205.3 335.22 204.995 335.497L196.379 343.33C195.779 343.875 194.851 343.829 194.309 343.226L187.336 335.479C187.095 335.211 186.961 334.862 186.961 334.501V321.383C186.961 320.26 185.748 319.557 184.774 320.114L180.819 322.374C180.598 322.5 180.348 322.566 180.093 322.566H161.926C161.652 322.566 161.383 322.489 161.15 322.344L99.4124 283.702C98.4387 283.092 97.1748 283.792 97.1748 284.941V313.734C97.1748 314.059 97.0664 314.375 96.8668 314.631L91.6463 321.344C91.1302 322.007 90.1622 322.1 89.5296 321.546L83.717 316.46C83.4425 316.22 83.2677 315.886 83.2269 315.523L79.212 279.836C79.1576 279.352 78.8658 278.927 78.4337 278.702L33.4705 255.321C33.0743 255.115 32.794 254.739 32.7095 254.301L20.4861 190.921C20.3988 190.468 20.1027 190.082 19.6874 189.882L6.82519 183.658C6.32056 183.414 6 182.902 6 182.342V163.878C6 163.542 6.11637 163.215 6.32944 162.954L24.3085 140.93C24.443 140.765 24.6118 140.631 24.8032 140.539L39.2022 133.557C39.5737 133.377 39.8517 133.048 39.9676 132.652L53.9345 84.8943C54.0598 84.4658 54.3741 84.118 54.7878 83.9501Z" stroke="black" stroke-width="10.9648"/>
    <path d="M212.236 60.4365L212.078 73.4954C212.07 74.1351 212.479 74.7056 213.087 74.9034L241.446 84.1251C242.734 84.5438 242.81 86.3369 241.562 86.8626L173.955 115.351C173.62 115.492 173.245 115.503 172.902 115.383L92.5961 87.1585C91.2995 86.7029 91.291 84.8723 92.5832 84.4046L145.72 65.1702C146.293 64.9629 146.677 64.4223 146.684 63.8132L146.86 49.2778" stroke="black" stroke-width="7.30985"/>
    <path d="M153.176 32.3805V74.0339" stroke="black" stroke-width="4.38591"/>
    <path d="M176.316 30.5293V86.0672" stroke="black" stroke-width="2.92394"/>
    <path d="M192.978 40.7112V77.7365" stroke="black" stroke-width="2.92394"/>
    <path d="M205.937 37.0087V74.0339" stroke="black" stroke-width="2.92394"/>
</svg>
